<?xml version="1.0" encoding="utf-8"?>
<svg version="1.1" xmlns:xlink="http://www.w3.org/1999/xlink" width="16px" height="21px" xmlns="http://www.w3.org/2000/svg">
  <defs>
    <mask fill="white" id="clip89">
      <path d="M 0 8  C 0 11.994985923650631  2.928304973021568 15.306029574688695  6.755555555555475 15.903788889086059  L 6.755555555555475 20.26666666666665  L 9.244444444444525 20.26666666666665  L 9.244427145637474 15.903788888412123  C 13.071695026978432 15.306029574688695  16 11.994985923650631  16 8  C 16 3.581722001600013  12.418277998399844 0  8 0  C 3.5817220016001556 0  0 3.581722001600013  0 8  Z " fill-rule="evenodd" />
    </mask>
  </defs>
  <g transform="matrix(1 0 0 1 -335 -21 )">
    <path d="M 0 8  C 0 11.994985923650631  2.928304973021568 15.306029574688695  6.755555555555475 15.903788889086059  L 6.755555555555475 20.26666666666665  L 9.244444444444525 20.26666666666665  L 9.244427145637474 15.903788888412123  C 13.071695026978432 15.306029574688695  16 11.994985923650631  16 8  C 16 3.581722001600013  12.418277998399844 0  8 0  C 3.5817220016001556 0  0 3.581722001600013  0 8  Z " fill-rule="nonzero" fill="#ffffff" stroke="none" fill-opacity="0" transform="matrix(1 0 0 1 335 21 )" />
    <path d="M 0 8  C 0 11.994985923650631  2.928304973021568 15.306029574688695  6.755555555555475 15.903788889086059  L 6.755555555555475 20.26666666666665  L 9.244444444444525 20.26666666666665  L 9.244427145637474 15.903788888412123  C 13.071695026978432 15.306029574688695  16 11.994985923650631  16 8  C 16 3.581722001600013  12.418277998399844 0  8 0  C 3.5817220016001556 0  0 3.581722001600013  0 8  Z " stroke-width="4" stroke="#18192f" fill="none" transform="matrix(1 0 0 1 335 21 )" mask="url(#clip89)" />
  </g>
</svg>