<?xml version="1.0" encoding="utf-8"?>
<svg version="1.1" xmlns:xlink="http://www.w3.org/1999/xlink" width="14px" height="18px" xmlns="http://www.w3.org/2000/svg">
  <defs>
    <mask fill="white" id="clip102">
      <path d="M 6.427542754616752 17.495670476563305  C 6.8168833478052875 18.165727213718583  7.788185669760424 18.165727213718583  8.173427940915644 17.495670476563305  C 8.173427940915644 17.495670476563305  12.825023449011042 10.310273110333242  12.825023449011042 10.310273110333242  C 12.825023449011042 10.310273110333242  13.00125129645403 10.003844724439091  13.00125129645403 10.003844724439091  C 13.406985177777187 9.252073751045373  13.669277787925239 8.410417117789393  13.751244228596534 7.515646230978405  C 13.767637516730701 7.327703487629947  13.775834160797785 7.135675032469635  13.775834160797785 6.943646577309323  C 13.775834160797785 3.3809058773131255  10.87832048306791 0.49230762628405955  7.304583669800195 0.49230762628405955  C 3.73084685653248 0.49230762628405955  0.8333331788026044 3.3809058773131255  0.8333331788026044 6.943646577309323  C 0.8333331788026044 7.135675032469635  0.8415298228696884 7.327703487629947  0.8579231110038563 7.515646230978405  C 0.9357912296418361 8.410417117789393  1.1980838397898879 9.247988039233405  1.6038177211125912 9.999759012627123  C 1.6038177211125912 9.999759012627123  1.7841438905893485 10.310273110333242  1.7841438905893485 10.310273110333242  C 1.7841438905893485 10.310273110333242  6.427542754616752 17.495670476563305  6.427542754616752 17.495670476563305  Z M 9.402924550985063 6.943646577309323  C 9.402924550985063 7.143846456093456  9.374236296750041 7.335874911253882  9.320958110313768 7.515646230978405  C 9.07096046626657 8.394074270541637  8.263591025654478 9.035531025013483  7.304583669800195 9.035531025013483  C 6.345576313946367 9.035531025013483  5.538206873334275 8.394074270541637  5.288209229287077 7.519731942790372  C 5.157062924212823 7.062132219855016  5.177554534380761 6.5432468197409435  5.411158890293791 6.016189996002936  C 5.599681703837632 5.583104543939157  5.952137398724062 5.2358190399257865  6.390657856315556 5.0478762965773285  C 7.923430296868446 4.390076694857953  9.402924550985063 5.493218884076896  9.402924550985063 6.943646577309323  Z " fill-rule="evenodd" />
    </mask>
  </defs>
  <g transform="matrix(1 0 0 1 -132 -758 )">
    <path d="M 6.427542754616752 17.495670476563305  C 6.8168833478052875 18.165727213718583  7.788185669760424 18.165727213718583  8.173427940915644 17.495670476563305  C 8.173427940915644 17.495670476563305  12.825023449011042 10.310273110333242  12.825023449011042 10.310273110333242  C 12.825023449011042 10.310273110333242  13.00125129645403 10.003844724439091  13.00125129645403 10.003844724439091  C 13.406985177777187 9.252073751045373  13.669277787925239 8.410417117789393  13.751244228596534 7.515646230978405  C 13.767637516730701 7.327703487629947  13.775834160797785 7.135675032469635  13.775834160797785 6.943646577309323  C 13.775834160797785 3.3809058773131255  10.87832048306791 0.49230762628405955  7.304583669800195 0.49230762628405955  C 3.73084685653248 0.49230762628405955  0.8333331788026044 3.3809058773131255  0.8333331788026044 6.943646577309323  C 0.8333331788026044 7.135675032469635  0.8415298228696884 7.327703487629947  0.8579231110038563 7.515646230978405  C 0.9357912296418361 8.410417117789393  1.1980838397898879 9.247988039233405  1.6038177211125912 9.999759012627123  C 1.6038177211125912 9.999759012627123  1.7841438905893485 10.310273110333242  1.7841438905893485 10.310273110333242  C 1.7841438905893485 10.310273110333242  6.427542754616752 17.495670476563305  6.427542754616752 17.495670476563305  Z M 9.402924550985063 6.943646577309323  C 9.402924550985063 7.143846456093456  9.374236296750041 7.335874911253882  9.320958110313768 7.515646230978405  C 9.07096046626657 8.394074270541637  8.263591025654478 9.035531025013483  7.304583669800195 9.035531025013483  C 6.345576313946367 9.035531025013483  5.538206873334275 8.394074270541637  5.288209229287077 7.519731942790372  C 5.157062924212823 7.062132219855016  5.177554534380761 6.5432468197409435  5.411158890293791 6.016189996002936  C 5.599681703837632 5.583104543939157  5.952137398724062 5.2358190399257865  6.390657856315556 5.0478762965773285  C 7.923430296868446 4.390076694857953  9.402924550985063 5.493218884076896  9.402924550985063 6.943646577309323  Z " fill-rule="nonzero" fill="#ffffff" stroke="none" fill-opacity="0" transform="matrix(1 0 0 1 132 758 )" />
    <path d="M 6.427542754616752 17.495670476563305  C 6.8168833478052875 18.165727213718583  7.788185669760424 18.165727213718583  8.173427940915644 17.495670476563305  C 8.173427940915644 17.495670476563305  12.825023449011042 10.310273110333242  12.825023449011042 10.310273110333242  C 12.825023449011042 10.310273110333242  13.00125129645403 10.003844724439091  13.00125129645403 10.003844724439091  C 13.406985177777187 9.252073751045373  13.669277787925239 8.410417117789393  13.751244228596534 7.515646230978405  C 13.767637516730701 7.327703487629947  13.775834160797785 7.135675032469635  13.775834160797785 6.943646577309323  C 13.775834160797785 3.3809058773131255  10.87832048306791 0.49230762628405955  7.304583669800195 0.49230762628405955  C 3.73084685653248 0.49230762628405955  0.8333331788026044 3.3809058773131255  0.8333331788026044 6.943646577309323  C 0.8333331788026044 7.135675032469635  0.8415298228696884 7.327703487629947  0.8579231110038563 7.515646230978405  C 0.9357912296418361 8.410417117789393  1.1980838397898879 9.247988039233405  1.6038177211125912 9.999759012627123  C 1.6038177211125912 9.999759012627123  1.7841438905893485 10.310273110333242  1.7841438905893485 10.310273110333242  C 1.7841438905893485 10.310273110333242  6.427542754616752 17.495670476563305  6.427542754616752 17.495670476563305  Z " stroke-width="3.599999904632568" stroke="#cacad8" fill="none" transform="matrix(1 0 0 1 132 758 )" mask="url(#clip102)" />
    <path d="M 9.402924550985063 6.943646577309323  C 9.402924550985063 7.143846456093456  9.374236296750041 7.335874911253882  9.320958110313768 7.515646230978405  C 9.07096046626657 8.394074270541637  8.263591025654478 9.035531025013483  7.304583669800195 9.035531025013483  C 6.345576313946367 9.035531025013483  5.538206873334275 8.394074270541637  5.288209229287077 7.519731942790372  C 5.157062924212823 7.062132219855016  5.177554534380761 6.5432468197409435  5.411158890293791 6.016189996002936  C 5.599681703837632 5.583104543939157  5.952137398724062 5.2358190399257865  6.390657856315556 5.0478762965773285  C 7.923430296868446 4.390076694857953  9.402924550985063 5.493218884076896  9.402924550985063 6.943646577309323  Z " stroke-width="3.599999904632568" stroke="#cacad8" fill="none" transform="matrix(1 0 0 1 132 758 )" mask="url(#clip102)" />
  </g>
</svg>