<?xml version="1.0" encoding="utf-8"?>
<svg version="1.1" xmlns:xlink="http://www.w3.org/1999/xlink" width="16px" height="14px" xmlns="http://www.w3.org/2000/svg">
  <defs>
    <mask fill="white" id="clip103">
      <path d="M 7.386568888888885 13.732172494494689  C 7.386568888888885 13.732172494494689  3.897195555555552 10.043559853423083  1.6014617777777855 7.616742309350201  C 0.6258128888888829 6.834738946192466  0 5.625891530136028  0 4.269249439407453  C 0 1.9114081362509936  1.890353333333325 0  4.222222222222222 0  C 5.87558399999999 0  7.306986666666665 0.9609060362187675  8 2.360537221828765  C 8.693013333333333 0.9609060362187675  10.124416000000009 0  11.777777777777779 0  C 14.109646666666675 0  16 1.9114081362509936  16 4.269249439407453  C 16 5.625891530136028  15.374187111111118 6.834738946192466  14.398538222222214 7.616742309350201  C 12.05494755555555 10.094149560490756  8.615953333333335 13.729506235871098  8.615953333333335 13.729506235871098  C 8.275754666666671 14.089129832859678  7.72535777777777 14.090305449336885  7.386568888888885 13.732172494494689  Z " fill-rule="evenodd" />
    </mask>
  </defs>
  <g transform="matrix(1 0 0 1 -226 -760 )">
    <path d="M 7.386568888888885 13.732172494494689  C 7.386568888888885 13.732172494494689  3.897195555555552 10.043559853423083  1.6014617777777855 7.616742309350201  C 0.6258128888888829 6.834738946192466  0 5.625891530136028  0 4.269249439407453  C 0 1.9114081362509936  1.890353333333325 0  4.222222222222222 0  C 5.87558399999999 0  7.306986666666665 0.9609060362187675  8 2.360537221828765  C 8.693013333333333 0.9609060362187675  10.124416000000009 0  11.777777777777779 0  C 14.109646666666675 0  16 1.9114081362509936  16 4.269249439407453  C 16 5.625891530136028  15.374187111111118 6.834738946192466  14.398538222222214 7.616742309350201  C 12.05494755555555 10.094149560490756  8.615953333333335 13.729506235871098  8.615953333333335 13.729506235871098  C 8.275754666666671 14.089129832859678  7.72535777777777 14.090305449336885  7.386568888888885 13.732172494494689  Z " fill-rule="nonzero" fill="#ffffff" stroke="none" fill-opacity="0" transform="matrix(1 0 0 1 226 760 )" />
    <path d="M 7.386568888888885 13.732172494494689  C 7.386568888888885 13.732172494494689  3.897195555555552 10.043559853423083  1.6014617777777855 7.616742309350201  C 0.6258128888888829 6.834738946192466  0 5.625891530136028  0 4.269249439407453  C 0 1.9114081362509936  1.890353333333325 0  4.222222222222222 0  C 5.87558399999999 0  7.306986666666665 0.9609060362187675  8 2.360537221828765  C 8.693013333333333 0.9609060362187675  10.124416000000009 0  11.777777777777779 0  C 14.109646666666675 0  16 1.9114081362509936  16 4.269249439407453  C 16 5.625891530136028  15.374187111111118 6.834738946192466  14.398538222222214 7.616742309350201  C 12.05494755555555 10.094149560490756  8.615953333333335 13.729506235871098  8.615953333333335 13.729506235871098  C 8.275754666666671 14.089129832859678  7.72535777777777 14.090305449336885  7.386568888888885 13.732172494494689  Z " stroke-width="3.599999904632568" stroke="#c3c3d0" fill="none" transform="matrix(1 0 0 1 226 760 )" mask="url(#clip103)" />
  </g>
</svg>