<?xml version="1.0" encoding="utf-8"?>
<svg version="1.1" xmlns:xlink="http://www.w3.org/1999/xlink" width="20px" height="18px" xmlns="http://www.w3.org/2000/svg">
  <g transform="matrix(1 0 0 1 -327 -330 )">
    <path d="M 5.76764 0.21540000000000026  C 4.409822 0.21540000000000026  3.0477800000000004 0.7602519999999999  2.0412800000000004 1.8516500000000002  C 0.027774000000000187 4.035326  0.030348000000000486 7.47705  2.0412800000000004 9.66165  L 9.191279999999999 17.430290000000003  C 9.400108399999999 17.655438  9.692286 17.783500000000004  9.999098 17.783500000000004  C 10.305888 17.783500000000004  10.598949999999999 17.655453400000003  10.806916 17.430290000000003  C 13.191716000000003 14.84441  15.572115999999998 12.261170000000002  17.956916 9.67529  C 19.970422 7.491614  19.970422 4.042190000000001  17.956916 1.8584700000000014  C 15.94341 -0.3252059999999988  12.524896000000002 -0.3252059999999988  10.511236 1.8584700000000014  L 10.002486 2.408470000000001  L 9.486849999999999 1.8516060000000016  C 8.480526 0.7602080000000022  7.125369999999998 0.21535600000000166  5.76753 0.21535600000000166  Z M 5.76764 2.353536  C 6.517004 2.353536  7.263816 2.684394000000001  7.87139 3.3435360000000003  L 9.198254 4.7804  C 9.407082399999998 5.005548  9.699259999999999 5.13361  10.006072 5.13361  C 10.312862 5.13361  10.605924 5.0055634  10.81389 4.7804  L 12.133890000000001 3.3504000000000005  C 13.349896 2.0321160000000003  15.12545 2.0321160000000003  16.34139 3.3504000000000005  C 17.557396 4.668684  17.557396 6.86534  16.34139 8.183580000000001  C 14.227322000000001 10.476420000000001  12.116729999999997 12.766620000000001  10.00275 15.05858  L 3.66411 8.17676  C 2.4489620000000007 6.855902  2.4481040000000003 4.6618200000000005  3.66411 3.34358  C 4.2716840000000005 2.684438000000001  5.018474000000001 2.35358  5.767860000000001 2.35358  Z " fill-rule="nonzero" fill="#ffffff" stroke="none" transform="matrix(1 0 0 1 327 330 )" />
  </g>
</svg>