<?xml version="1.0" encoding="utf-8"?>
<svg version="1.1" xmlns:xlink="http://www.w3.org/1999/xlink" width="9px" height="8px" xmlns="http://www.w3.org/2000/svg">
  <g transform="matrix(1 0 0 1 -166 -488 )">
    <path d="M 2.595438 0.09573333333333345  C 1.9844199 0.09573333333333345  1.3715010000000003 0.33788977777777773  0.9185760000000002 0.8229555555555557  C 0.012498300000000085 1.7934782222222223  0.013656600000000218 3.3231333333333333  0.9185760000000002 4.294066666666667  L 4.136076 7.746795555555557  C 4.23004878 7.846861333333333  4.361528699999999 7.90377777777778  4.4995940999999995 7.90377777777778  C 4.6376496 7.90377777777778  4.769527499999999 7.846868177777779  4.8631122 7.746795555555557  C 5.936272200000001 6.597515555555556  7.0074521999999995 5.44940888888889  8.080612200000001 4.300128888888889  C 8.9866899 3.3296062222222225  8.9866899 1.796528888888889  8.080612200000001 0.8259866666666673  C 7.1745345 -0.14453599999999944  5.636203200000001 -0.14453599999999944  4.7300562 0.8259866666666673  L 4.501118699999999 1.0704311111111116  L 4.2690825 0.8229360000000008  C 3.8162366999999997 0.3378702222222232  3.2064164999999996 0.09571377777777851  2.5953885 0.09571377777777851  Z M 2.595438 1.046016  C 2.9326518 1.046016  3.2687172 1.1930640000000006  3.5421255 1.4860160000000002  L 4.1392143 2.1246222222222224  C 4.2331870799999995 2.224688  4.364666999999999 2.2816044444444445  4.502732399999999 2.2816044444444445  C 4.6407879 2.2816044444444445  4.7726658 2.2246948444444445  4.8662505000000005 2.1246222222222224  L 5.4602505 1.489066666666667  C 6.0074532 0.9031626666666668  6.8064525 0.9031626666666668  7.3536255 1.489066666666667  C 7.9008282 2.0749706666666667  7.9008282 3.0512622222222223  7.3536255 3.637146666666667  C 6.4022949 4.656186666666667  5.452528499999999 5.674053333333334  4.5012375 6.692702222222222  L 1.6488494999999999 3.6341155555555553  C 1.1020329000000002 3.0470675555555555  1.1016468000000001 2.0719200000000004  1.6488494999999999 1.4860355555555556  C 1.9222578000000003 1.193083555555556  2.2583133000000006 1.0460355555555556  2.595537 1.0460355555555556  Z " fill-rule="nonzero" fill="#a6a6bb" stroke="none" transform="matrix(1 0 0 1 166 488 )" />
  </g>
</svg>