<?xml version="1.0" encoding="utf-8"?>
<svg version="1.1" xmlns:xlink="http://www.w3.org/1999/xlink" width="128px" height="42px" xmlns="http://www.w3.org/2000/svg">
  <defs>
    <filter x="27px" y="95px" width="128px" height="42px" filterUnits="userSpaceOnUse" id="filter90">
      <feOffset dx="0" dy="0" in="SourceAlpha" result="shadowOffsetInner" />
      <feGaussianBlur stdDeviation="2.5" in="shadowOffsetInner" result="shadowGaussian" />
      <feComposite in2="shadowGaussian" operator="atop" in="SourceAlpha" result="shadowComposite" />
      <feColorMatrix type="matrix" values="0 0 0 0 0  0 0 0 0 0  0 0 0 0 0  0 0 0 0.3137254901960784 0  " in="shadowComposite" />
    </filter>
    <g id="widget91">
      <path d="M 4.600397056660768 0.3176317835855116  C 3.4179962784389772 0.3487475935387465  2.4222903599365964 0.768811027907077  1.6132793011531703 1.5778220866902757  C 0.7887103373932405 2.4023910504502055  0.37642585551338925 3.3903180164643345  1 4.54160298473289  L 1 27.481733872732093  C 0.38420480800164114 28.664134650953883  0.8042682423699716 29.659840569456264  1.6132793011531703 30.46885162823969  C 2.4378482649131 31.29342059199962  3.425775230927229 31.70570507387947  4.577060199195785 31.70570507387947  L 99.44899964176557 31.659031358949505  C 100.61584251501063 31.674589263926237  101.90325915182439 31.390657498103337  103.31124955220685 30.80723606148058  C 104.7192399525893 30.22381462485805  105.83551963466061 29.51981942466682  106.66008859842032 28.69525046090712  L 116.36822130381984 18.987117755507597  C 117.17723236260326 18.17810669672417  117.58173789199463 17.18240077822179  117.58173789199486 16  C 117.58173789199463 14.81759922177821  117.17723236260326 13.821893303275829  116.36822130381984 13.012882244492403  L 106.66008859842032 3.304749539093109  C 105.83551963466061 2.480180575333179  104.7192399525893 1.7761853751419494  103.31124955220685 1.1927639385194198  C 101.90325915182439 0.6093425018966627  100.60806356252237 0.3176317835855116  99.42566278430058 0.3176317835855116  L 4.600397056660768 0.3176317835855116  Z " fill-rule="nonzero" fill="#f82f2f" stroke="none" transform="matrix(1 0 0 1 32 100 )" />
    </g>
  </defs>
  <g transform="matrix(1 0 0 1 -27 -95 )">
    <use xlink:href="#widget91" filter="url(#filter90)" />
    <use xlink:href="#widget91" />
  </g>
</svg>