<?xml version="1.0" encoding="utf-8"?>
<svg version="1.1" xmlns:xlink="http://www.w3.org/1999/xlink" width="21px" height="17px" xmlns="http://www.w3.org/2000/svg">
  <g transform="matrix(1 0 0 1 -36 -48 )">
    <path d="M 20.06608608375209 7.530459992435928  C 20.06608608375209 7.530459992435928  3.199600756314896 7.530459992435928  3.199600756314896 7.530459992435928  C 3.199600756314896 7.530459992435928  9.435655279740912 1.5611398517181005  9.435655279740912 1.5611398517181005  C 9.803617362742594 1.2083244904000425  9.809220846240072 0.6320391584019073  9.448107465290892 0.27254398817753644  C 9.085748865786707 -0.0863439266916021  8.494892661440526 -0.09120196953249436  8.126930578438845 0.26039888107537484  C 8.126930578438845 0.26039888107537484  0.27956324484644307 7.772147623769248  0.27956324484644307 7.772147623769248  C 0.10149699148184133 7.942786378554743  0.0006342885270635985 8.175365179561373  1.1679249562021064E-05 8.418267321604743  C -0.001233539305423438 8.661169463648253  0.09713872653934799 8.894962775365071  0.273337152071445 9.066816040860893  C 0.273337152071445 9.066816040860893  8.133779280491325 16.733414899107395  8.133779280491325 16.733414899107395  C 8.316203798798421 16.911340718154158  8.555285761357894 16.999999999999993  8.79436772391735 16.999999999999993  C 9.032827077199322 16.999999999999993  9.271909039758777 16.911340718154158  9.454333558065871 16.733414899107395  C 9.819182594680061 16.377563261013727  9.819182594680061 15.800670673660498  9.454333558065871 15.445426290921924  C 9.454333558065871 15.445426290921924  3.2070720676448814 9.352226057761829  3.2070720676448814 9.352226057761829  C 3.2070720676448814 9.352226057761829  20.06608608375209 9.352226057761829  20.06608608375209 9.352226057761829  C 20.58160656552094 9.352226057761829  20.999999999999996 8.944150459128949  20.999999999999996 8.441343025098877  C 20.999999999999996 7.937928335713852  20.58160656552094 7.530459992435928  20.06608608375209 7.530459992435928  Z " fill-rule="nonzero" fill="#ffffff" stroke="none" transform="matrix(1 0 0 1 36 48 )" />
  </g>
</svg>