<?xml version="1.0" encoding="utf-8"?>
<svg version="1.1" xmlns:xlink="http://www.w3.org/1999/xlink" width="17px" height="16px" xmlns="http://www.w3.org/2000/svg">
  <g transform="matrix(1 0 0 1 -324 -49 )">
    <path d="M 7.84822944444444 15.693911422279644  C 7.84822944444444 15.693911422279644  4.140770277777774 11.47835411819781  1.7015531388888971 8.704848353543087  C 0.664926194444438 7.811130224219961  0 6.4295903201554605  0 4.87914221646566  C 0 2.184466441429707  2.008500416666658 0  4.486111111111112 0  C 6.2428079999999895 0  7.763673333333331 1.0981783271071628  8.5 2.69775682494716  C 9.236326666666667 1.0981783271071628  10.757192000000009 0  12.51388888888889 0  C 14.991499583333342 0  17 2.184466441429707  17 4.87914221646566  C 17 6.4295903201554605  16.335073805555563 7.811130224219961  15.298446861111103 8.704848353543087  C 12.808381777777772 11.53617092627515  9.154450416666668 15.69086426956697  9.154450416666668 15.69086426956697  C 8.792989333333338 16.101862666125346  8.20819263888888 16.103206227813583  7.84822944444444 15.693911422279644  Z " fill-rule="nonzero" fill="#ffffff" stroke="none" transform="matrix(1 0 0 1 324 49 )" />
  </g>
</svg>