<?xml version="1.0" encoding="utf-8"?>
<svg version="1.1" xmlns:xlink="http://www.w3.org/1999/xlink" width="128px" height="42px" xmlns="http://www.w3.org/2000/svg">
  <defs>
    <filter x="240px" y="664px" width="128px" height="42px" filterUnits="userSpaceOnUse" id="filter95">
      <feOffset dx="0" dy="0" in="SourceAlpha" result="shadowOffsetInner" />
      <feGaussianBlur stdDeviation="2.5" in="shadowOffsetInner" result="shadowGaussian" />
      <feComposite in2="shadowGaussian" operator="atop" in="SourceAlpha" result="shadowComposite" />
      <feColorMatrix type="matrix" values="0 0 0 0 0  0 0 0 0 0  0 0 0 0 0  0 0 0 0.3137254901960784 0  " in="shadowComposite" />
    </filter>
    <g id="widget96">
      <path d="M 113.39960294333923 31.68236821641449  C 114.58200372156102 31.651252406461253  115.5777096400634 31.231188972092923  116.38672069884683 30.422177913309724  C 117.21128966260676 29.597608949549794  117.62357414448661 28.609681983535665  117 27.45839701526711  L 117 4.518266127267907  C 117.61579519199836 3.3358653490461165  117.19573175763003 2.3401594305437357  116.38672069884683 1.5311483717603096  C 115.5621517350869 0.7065794080003798  114.57422476907277 0.29429492612052854  113.42293980080422 0.29429492612052854  L 18.551000358234432 0.3409686410504946  C 17.384157484989377 0.3254107360737635  16.096740848175607 0.6093425018966627  14.688750447793153 1.1927639385194198  C 13.280760047410698 1.7761853751419494  12.164480365339392 2.480180575333179  11.339911401579682 3.3047495390928816  L 1.6317786961801588 13.012882244492403  C 0.8227676373967396 13.821893303275829  0.4182621080053641 14.81759922177821  0.4182621080051414 16  C 0.4182621080053641 17.18240077822179  0.8227676373967396 18.17810669672417  1.6317786961801588 18.987117755507597  L 11.339911401579682 28.69525046090689  C 12.164480365339392 29.51981942466682  13.280760047410698 30.22381462485805  14.688750447793153 30.80723606148058  C 16.096740848175607 31.390657498103337  17.391936437477625 31.68236821641449  18.57433721569942 31.68236821641449  L 113.39960294333923 31.68236821641449  Z " fill-rule="nonzero" fill="#f82f2f" stroke="none" transform="matrix(1 0 0 1 245 669 )" />
    </g>
  </defs>
  <g transform="matrix(1 0 0 1 -240 -664 )">
    <use xlink:href="#widget96" filter="url(#filter95)" />
    <use xlink:href="#widget96" />
  </g>
</svg>